<?xml version="1.0" standalone="no"?>
<!DOCTYPE svg PUBLIC "-//W3C//DTD SVG 20010904//EN"
        "http://www.w3.org/TR/2001/REC-SVG-20010904/DTD/svg10.dtd">
<svg height="2586.000000pt" preserveAspectRatio="xMidYMid meet"
     version="1.0" viewBox="0 0 2586.000000 2586.000000" width="2586.000000pt"
     xmlns="http://www.w3.org/2000/svg">
    <metadata>
        Created by potrace 1.11, written by Peter Selinger 2001-2013
    </metadata>
    <g fill="#000000"
       stroke="none" transform="translate(0.000000,2586.000000) scale(0.100000,-0.100000)">
        <path d="M8763 20973 c-4 -9 0 -95 7 -192 18 -242 26 -647 19 -973 -5 -254 -9
-295 -52 -598 -26 -179 -78 -518 -117 -755 -39 -236 -79 -513 -91 -615 -13
-114 -41 -282 -75 -439 -30 -139 -54 -264 -54 -276 0 -13 8 -26 18 -30 9 -4
112 -11 227 -15 116 -5 275 -18 354 -29 156 -23 161 -22 161 29 0 68 32 545
40 618 6 45 21 135 34 200 39 188 45 312 50 958 l4 610 61 122 c90 180 88 196
-69 448 -120 193 -132 227 -171 459 -27 167 -42 221 -80 281 -38 59 -154 181
-191 200 -36 19 -67 18 -75 -3z"/>
        <path d="M5275 17299 c-131 -92 -350 -278 -417 -354 -20 -22 -53 -71 -74 -110
l-39 -70 0 -160 c0 -156 1 -162 28 -218 33 -67 116 -159 312 -346 194 -185
272 -246 325 -255 84 -13 103 47 42 136 -16 24 -32 48 -35 54 -4 6 36 -6 87
-27 263 -109 360 -95 547 79 102 94 119 123 119 204 0 139 -53 315 -132 440
-60 92 -242 296 -273 304 -32 8 -55 -11 -55 -45 0 -16 40 -95 96 -192 107
-184 146 -263 180 -363 36 -106 34 -121 -35 -187 -32 -31 -84 -74 -116 -95
-73 -49 -141 -55 -276 -26 -151 33 -155 33 -181 13 -23 -19 -23 -19 -56 20
-39 45 -70 63 -127 74 -66 11 -105 61 -105 135 0 26 -15 77 -42 138 -58 137
-59 168 -9 267 89 177 241 314 453 405 100 44 118 62 118 120 0 37 -5 51 -26
71 -23 22 -35 24 -137 27 l-112 3 -60 -42z"/>
        <path d="M6865 17014 c-22 -2 -98 -9 -170 -15 -154 -13 -269 -32 -318 -52 -69
-29 -177 -147 -177 -193 0 -41 137 -145 173 -131 8 3 27 30 41 60 27 53 28 54
79 61 387 49 404 50 672 50 291 0 453 -11 750 -50 154 -21 260 -27 560 -35
429 -10 553 -19 800 -59 268 -44 880 -169 1150 -236 184 -46 245 -66 593 -196
281 -105 294 -109 318 -93 30 20 31 55 2 82 -28 26 -399 210 -558 277 -214 91
-539 175 -1265 327 -535 113 -639 125 -1130 134 -191 4 -490 18 -740 36 -410
29 -699 41 -780 33z"/>
        <path d="M6640 16646 c0 -56 33 -128 74 -159 23 -18 115 -107 206 -198 148
-149 171 -169 225 -189 92 -34 199 -59 209 -50 10 10 -12 50 -52 92 l-24 27
33 5 c19 2 147 12 284 21 305 20 405 30 560 57 157 27 324 27 510 -2 300 -46
364 -51 780 -65 277 -10 455 -20 501 -29 39 -8 147 -39 240 -70 93 -30 178
-56 189 -56 44 -4 65 1 74 18 26 49 -73 140 -244 222 -157 75 -169 77 -475 90
-303 12 -512 27 -910 66 -320 32 -452 29 -860 -15 -151 -17 -394 -40 -540 -51
-146 -12 -266 -23 -268 -25 -2 -2 -44 29 -93 70 -127 106 -371 265 -406 265
-7 0 -13 -11 -13 -24z"/>
        <path d="M6186 16571 c-3 -4 15 -68 39 -141 l45 -133 138 -141 c145 -148 214
-240 233 -309 14 -52 14 -173 1 -208 -20 -52 -239 -139 -350 -139 -38 0 -150
24 -332 70 -340 87 -595 144 -614 137 -22 -9 -67 -108 -56 -122 6 -7 144 -74
308 -150 320 -148 406 -192 464 -237 98 -77 317 -400 374 -553 10 -27 32 -106
49 -175 30 -122 31 -125 66 -142 19 -10 174 -52 344 -95 l308 -77 35 40 c55
64 382 512 438 602 29 45 66 121 83 168 32 88 112 387 129 482 l9 52 -61 52
c-33 29 -121 109 -195 178 -228 213 -203 196 -311 209 -205 25 -308 69 -554
239 -94 65 -221 148 -283 185 -62 37 -152 101 -201 142 -94 78 -97 80 -106 66z"/>
        <path d="M8268 16127 c-32 -7 -64 -19 -72 -27 -13 -14 -76 -300 -91 -416 -8
-61 3 -76 123 -174 107 -86 120 -115 82 -177 -11 -19 -28 -33 -39 -33 -11 0
-54 16 -97 35 -42 19 -78 35 -80 35 -8 0 -26 -54 -78 -240 -89 -313 -107 -346
-377 -715 -208 -284 -213 -291 -206 -310 10 -25 246 -126 531 -226 336 -119
799 -244 1271 -343 983 -206 3556 -615 4407 -701 302 -30 380 -23 869 80 466
98 656 158 712 225 37 44 61 170 36 186 -19 11 -197 6 -489 -16 -720 -54 -941
-46 -1466 50 -984 181 -2404 651 -3754 1245 -135 59 -258 108 -275 109 l-30 1
-16 -105 c-9 -58 -19 -113 -23 -122 -13 -29 -53 -21 -95 18 -54 48 -65 87 -58
195 l7 88 -33 22 c-81 56 -147 146 -147 203 0 17 5 18 53 11 108 -15 110 -15
118 30 15 88 51 967 40 978 -4 4 -128 28 -277 53 -292 49 -451 61 -546 41z"/>
        <path d="M5206 15463 c-23 -46 -74 -215 -87 -288 -18 -105 -6 -268 30 -410 17
-66 82 -282 146 -480 64 -198 150 -490 191 -650 41 -159 185 -681 319 -1160
134 -478 251 -899 260 -934 14 -55 15 -88 6 -269 -19 -364 -16 -392 44 -392
35 0 49 43 104 323 l39 199 -98 436 c-368 1637 -501 2179 -674 2742 -69 223
-133 436 -142 475 l-16 70 61 125 61 125 -23 17 c-32 25 -176 98 -193 98 -7 0
-20 -12 -28 -27z"/>
        <path d="M5866 15129 c-27 -22 -28 -25 -24 -93 3 -43 35 -180 81 -351 145
-540 161 -641 187 -1185 14 -292 31 -445 86 -775 85 -512 288 -1582 313 -1647
14 -37 41 -50 72 -35 43 22 50 -68 -97 1222 -41 363 -97 883 -125 1155 -79
792 -88 847 -209 1195 -26 77 -75 210 -109 295 -95 242 -115 266 -175 219z"/>
        <path d="M15420 13046 c-52 -34 -101 -70 -109 -79 -11 -14 -10 -18 10 -27 13
-5 206 -19 429 -30 1046 -53 1890 -133 2733 -260 3110 -468 5128 -1402 5476
-2535 70 -229 65 -499 -14 -740 -86 -262 -258 -524 -519 -792 -162 -167 -281
-272 -457 -406 -992 -749 -2632 -1420 -4674 -1911 -2760 -663 -6050 -956
-9115 -811 -2727 130 -5093 620 -6542 1356 -284 145 -567 320 -744 460 -766
608 -972 1236 -635 1934 143 297 318 513 612 755 209 173 235 198 221 212 -9
9 -27 1 -74 -32 -345 -241 -707 -583 -909 -860 -187 -257 -295 -491 -355 -771
-25 -116 -25 -388 -1 -514 108 -551 530 -1047 1267 -1491 1422 -857 3976
-1447 6960 -1609 1021 -55 2535 -62 3500 -15 3719 180 7081 836 9575 1868 482
199 1068 489 1455 720 683 407 1203 861 1502 1312 128 192 223 415 270 630 17
77 21 133 22 295 0 189 -1 206 -28 310 -81 313 -243 582 -511 848 -191 189
-381 339 -630 497 -1589 1010 -4532 1639 -8140 1740 -521 15 -463 20 -575 -54z"/>
        <path d="M11645 12928 c-806 -52 -2349 -275 -3440 -498 -184 -38 -241 -57
-222 -77 4 -4 76 3 160 15 1418 211 2378 334 3452 442 275 28 508 53 518 56
19 6 22 19 8 29 -13 7 -219 33 -301 37 -36 2 -114 0 -175 -4z"/>
        <path d="M7935 12370 c-3 -5 3 -10 15 -10 12 0 18 5 15 10 -3 6 -10 10 -15 10
-5 0 -12 -4 -15 -10z"/>
        <path d="M7938 12343 c6 -2 18 -2 25 0 6 3 1 5 -13 5 -14 0 -19 -2 -12 -5z"/>
        <path d="M12781 11979 c-97 -12 -209 -43 -274 -75 -69 -36 -158 -122 -191
-187 -47 -93 -45 -201 5 -227 10 -6 74 -10 143 -10 155 0 169 8 192 112 30
133 115 198 268 206 98 5 159 -10 198 -48 30 -30 38 -83 18 -121 -16 -29 -119
-76 -400 -184 -344 -132 -392 -162 -420 -264 -15 -58 -6 -104 31 -146 55 -62
91 -68 458 -73 382 -5 423 -1 463 38 22 23 28 37 28 74 0 24 -5 48 -12 52 -7
4 -135 13 -285 19 -173 7 -277 15 -284 22 -16 16 13 29 337 153 329 127 352
138 408 193 56 56 76 102 76 173 0 134 -93 224 -285 274 -93 25 -350 35 -474
19z"/>
        <path d="M16763 11971 c-42 -26 -55 -53 -51 -104 3 -38 8 -45 53 -75 103 -69
110 -149 26 -317 -104 -210 -229 -326 -350 -328 -64 -1 -104 23 -130 77 -39
84 -25 183 68 471 63 195 68 228 40 256 -20 20 -29 21 -144 17 -145 -5 -166
-14 -200 -93 -49 -111 -125 -358 -135 -442 -27 -215 40 -361 200 -437 55 -26
79 -31 162 -34 277 -12 521 65 677 213 132 125 185 216 218 373 21 103 13 188
-24 260 -51 100 -172 170 -308 179 -58 3 -76 1 -102 -16z"/>
        <path d="M11501 11969 c-99 -11 -228 -53 -308 -100 -86 -52 -175 -140 -214
-211 -29 -55 -33 -72 -33 -133 1 -86 18 -129 79 -193 80 -87 167 -112 444
-132 73 -5 136 -12 139 -15 4 -3 -10 -39 -31 -79 -65 -127 -57 -136 115 -136
144 0 165 6 216 64 42 48 89 151 100 218 8 54 13 61 83 126 127 120 165 210
140 334 -24 112 -105 189 -246 234 -68 21 -104 26 -240 29 -88 2 -198 -1 -244
-6z m269 -216 c89 -47 115 -136 61 -211 -55 -77 -205 -152 -304 -152 -105 1
-197 73 -197 154 0 115 163 235 321 236 54 0 77 -5 119 -27z"/>
        <path d="M10423 11961 c-63 -11 -93 -43 -93 -102 0 -25 6 -51 13 -57 6 -5 38
-13 69 -17 105 -13 106 10 -10 -346 -113 -351 -128 -405 -118 -443 l6 -26 143
0 c157 1 163 2 194 65 45 87 293 835 293 882 0 44 -20 48 -244 50 -116 1 -230
-2 -253 -6z"/>
        <path d="M13735 11963 c-61 -13 -95 -54 -95 -116 0 -45 16 -57 87 -64 73 -7
86 -17 77 -57 -4 -17 -49 -164 -101 -326 -52 -162 -97 -319 -100 -349 -9 -76
1 -81 153 -81 184 0 166 -27 343 509 118 355 139 435 124 459 -5 9 -28 20 -49
24 -42 7 -406 9 -439 1z"/>
        <path d="M15000 11654 c-204 -35 -344 -115 -426 -245 -33 -53 -64 -148 -64
-197 1 -76 59 -157 147 -202 59 -30 141 -40 345 -40 l176 0 21 34 c23 36 27
71 11 81 -6 4 -70 11 -143 16 -129 9 -197 22 -197 39 0 16 34 19 290 26 l261
7 33 41 c49 60 68 102 73 165 8 83 -11 138 -66 192 -64 64 -118 80 -296 84
-77 2 -151 2 -165 -1z m175 -157 c50 -43 42 -157 -12 -178 -13 -5 -85 -9 -159
-9 -150 0 -150 0 -114 69 24 47 98 114 142 128 59 19 114 15 143 -10z"/>
        <path d="M17315 11165 c-77 -27 -123 -110 -93 -172 12 -25 19 -28 66 -31 88
-5 152 50 152 131 0 66 -53 97 -125 72z"/>
        <path d="M15643 11150 c-36 -21 -73 -85 -73 -125 0 -59 76 -83 149 -47 106 53
104 192 -2 192 -24 0 -56 -8 -74 -20z"/>
        <path d="M2406 11093 c-67 -51 -96 -108 -96 -189 0 -52 4 -68 24 -91 l24 -28
306 -3 306 -4 30 -34 c16 -19 30 -39 30 -45 0 -14 -25 -100 -236 -825 -203
-696 -205 -710 -155 -766 l29 -33 214 0 213 0 47 28 c91 53 83 34 303 762 193
637 233 764 261 812 61 106 236 135 326 54 36 -32 38 -44 24 -202 -8 -92 -8
-96 15 -122 19 -22 38 -30 94 -39 83 -13 342 -5 400 12 106 32 158 156 159
380 1 171 -27 262 -99 319 -59 46 -45 45 -1135 48 l-1035 3 -49 -37z"/>
        <path d="M18555 11123 c-31 -8 -75 -54 -95 -99 -25 -56 -77 -248 -85 -310 -6
-45 -3 -55 17 -78 l23 -27 200 -1 c127 0 211 5 230 12 60 23 83 58 124 184 72
221 76 293 15 316 -25 10 -390 12 -429 3z"/>
        <path d="M7735 10489 c-144 -21 -284 -69 -391 -133 -32 -19 -61 -33 -66 -30
-4 3 -8 29 -8 58 0 86 -9 90 -209 94 -188 4 -273 -7 -308 -40 -12 -12 -32 -46
-43 -76 -47 -126 -268 -859 -330 -1092 -34 -132 -30 -171 22 -189 40 -14 370
-14 420 -1 75 21 85 41 192 376 123 388 166 469 320 611 91 83 162 117 250
118 66 0 69 -1 97 -35 37 -44 43 -78 26 -170 -14 -86 -8 -153 17 -178 15 -15
43 -17 242 -17 l226 0 28 32 c74 82 104 373 51 495 -62 146 -272 215 -536 177z"/>
        <path d="M9230 10489 c-191 -21 -389 -88 -522 -175 -40 -26 -112 -86 -159
-134 -134 -136 -145 -161 -330 -756 l-10 -31 -137 -7 c-386 -20 -711 -120
-903 -280 -199 -165 -272 -442 -173 -652 55 -118 131 -161 562 -320 112 -41
237 -91 279 -109 213 -98 262 -208 144 -325 -58 -58 -100 -70 -235 -70 -193 0
-314 31 -356 90 -11 16 -26 60 -33 98 -16 81 -37 119 -75 133 -17 7 -112 9
-249 7 -205 -3 -224 -5 -250 -24 -96 -70 -99 -261 -6 -397 110 -163 328 -252
681 -278 405 -31 879 78 1088 250 34 28 81 79 103 113 58 89 74 149 69 267 -3
86 -7 103 -38 159 -41 78 -124 156 -216 204 -38 20 -202 91 -364 159 -162 67
-318 138 -347 156 -73 48 -123 106 -123 143 0 68 100 205 184 255 70 41 165
57 306 53 105 -4 133 -8 174 -28 64 -31 134 -102 170 -174 26 -52 30 -72 41
-227 12 -169 12 -171 41 -200 42 -42 119 -53 314 -45 195 8 222 15 260 68 45
62 53 105 48 273 -4 133 -7 157 -30 213 -59 142 -143 244 -275 334 -40 27 -73
55 -73 63 0 15 63 221 151 494 55 171 101 253 187 333 124 116 287 142 383 61
45 -38 59 -74 59 -150 0 -85 -12 -135 -105 -444 -135 -446 -137 -460 -86 -500
25 -20 34 -21 236 -16 129 3 222 9 242 17 56 21 78 74 221 530 l76 245 1 141
0 140 -34 68 c-77 151 -248 245 -501 276 -97 12 -281 11 -390 -1z"/>
        <path d="M11525 10491 c-50 -22 -105 -110 -105 -168 0 -41 22 -66 86 -102 47
-27 60 -41 81 -88 49 -107 26 -284 -62 -468 -117 -244 -328 -397 -493 -355
-108 27 -153 97 -153 238 0 95 16 163 102 453 27 92 62 218 79 280 27 105 28
114 14 145 -24 51 -50 56 -262 52 l-190 -3 -44 -30 c-42 -30 -44 -35 -100
-200 -31 -94 -78 -242 -104 -330 -41 -142 -47 -174 -52 -284 -3 -79 0 -144 8
-180 55 -254 273 -399 601 -401 314 -1 545 48 784 166 175 86 294 201 370 359
59 122 75 188 82 332 9 200 -21 302 -122 411 -94 102 -236 160 -430 176 -38 3
-79 2 -90 -3z"/>
        <path d="M13165 10489 c-82 -11 -237 -50 -313 -79 -294 -113 -501 -330 -588
-615 -15 -47 -19 -94 -19 -215 0 -143 2 -159 24 -203 13 -27 49 -76 79 -108
44 -48 76 -70 156 -109 162 -79 190 -83 566 -84 308 -1 327 0 359 19 57 34 76
68 76 138 0 83 -8 87 -200 87 -268 0 -382 25 -445 97 -35 39 -37 48 -12 58 9
4 240 11 512 14 578 8 537 -1 614 124 87 141 133 297 121 407 -29 259 -221
437 -507 469 -112 13 -322 12 -423 0z m194 -259 c46 0 109 -49 138 -108 21
-42 26 -68 27 -135 1 -76 -2 -88 -29 -132 -36 -58 -68 -83 -121 -95 -46 -11
-306 -13 -418 -3 -69 5 -79 9 -89 30 -8 18 -7 36 6 76 39 124 158 268 269 327
56 30 146 52 176 44 8 -2 26 -4 41 -4z"/>
        <path d="M15465 10489 c-144 -16 -323 -78 -425 -147 -45 -31 -45 -31 -52 -9
-3 12 -6 37 -7 55 -2 80 -34 92 -231 92 -235 0 -281 -16 -322 -110 -50 -114
-344 -1108 -355 -1197 -4 -39 -1 -53 15 -73 20 -25 21 -25 210 -28 310 -5 299
-13 407 323 95 297 128 391 159 452 58 114 200 259 306 311 45 22 69 27 128
27 68 0 76 -2 97 -28 32 -37 40 -85 26 -167 -18 -109 -15 -144 15 -180 l27
-31 211 3 c232 3 239 5 278 69 52 86 75 307 43 416 -30 100 -112 178 -220 208
-67 18 -212 25 -310 14z"/>
        <path d="M16875 10484 c-250 -40 -472 -140 -623 -280 -172 -158 -270 -366
-280 -592 -6 -150 16 -231 91 -326 56 -71 203 -152 347 -192 56 -16 109 -18
397 -19 321 0 332 1 360 21 49 37 73 81 73 139 0 33 -5 57 -14 64 -9 8 -86 16
-208 21 -321 16 -367 26 -423 92 -20 24 -34 66 -22 69 1 0 227 4 502 8 556 9
546 8 603 77 44 53 109 186 129 264 24 93 21 238 -6 314 -60 169 -201 287
-396 332 -99 23 -410 28 -530 8z m270 -270 c78 -37 124 -148 110 -263 -11 -89
-36 -135 -91 -167 l-49 -29 -243 0 -244 0 -19 24 c-25 31 -20 62 27 157 65
132 205 257 322 291 58 16 138 10 187 -13z"/>
        <path d="M19825 10488 c-375 -38 -700 -249 -816 -529 -66 -162 -249 -754 -249
-808 0 -17 10 -37 26 -52 25 -23 30 -24 222 -27 122 -2 211 1 233 7 21 6 53
29 72 51 32 34 48 76 132 337 167 518 180 547 294 657 80 75 146 106 231 106
118 -1 188 -52 211 -156 16 -69 11 -89 -129 -554 -52 -173 -95 -334 -96 -357
-1 -32 5 -48 22 -65 22 -22 30 -23 228 -26 194 -3 207 -2 250 19 25 12 55 36
65 53 20 33 86 227 193 572 l66 211 -9 111 c-7 82 -15 124 -32 159 -32 67
-141 174 -216 211 -157 80 -414 109 -698 80z"/>
        <path d="M4933 10471 c-114 -6 -130 -12 -170 -61 -14 -17 -54 -140 -164 -508
-59 -199 -79 -278 -79 -321 1 -101 17 -199 41 -248 35 -74 131 -164 219 -206
140 -66 175 -72 450 -71 227 2 252 4 342 27 115 30 242 84 318 134 73 48 202
174 255 248 45 64 84 167 175 470 74 245 120 424 120 467 0 62 -23 70 -213 76
-181 5 -268 -6 -303 -39 -33 -31 -64 -114 -149 -394 -135 -444 -161 -507 -249
-603 -165 -178 -395 -162 -440 31 -10 44 18 176 104 477 114 401 127 471 94
504 -12 12 -37 16 -107 16 -51 0 -101 2 -112 3 -11 2 -70 1 -132 -2z"/>
        <path d="M18215 10473 c-81 -4 -92 -6 -119 -31 -54 -51 -72 -133 -41 -192 11
-21 27 -32 58 -41 23 -6 48 -13 55 -15 18 -5 15 -64 -8 -152 -10 -43 -67 -243
-126 -447 -116 -403 -126 -458 -86 -497 21 -22 32 -23 170 -26 81 -2 176 -1
212 3 59 6 69 11 106 49 36 36 47 59 87 181 120 366 307 1022 307 1076 0 26
-8 47 -26 68 l-26 31 -236 -2 c-131 -1 -277 -4 -327 -5z"/>
        <path d="M10045 8696 c-113 -17 -227 -47 -330 -86 -330 -128 -556 -417 -584
-746 -25 -296 73 -441 363 -541 94 -32 303 -47 587 -41 191 4 220 7 249 24 48
28 71 77 68 144 -4 71 -20 79 -153 80 -222 2 -367 16 -417 39 -59 29 -98 67
-98 97 0 13 1 25 3 26 1 1 229 4 507 8 589 7 553 1 620 106 86 136 122 252
121 391 0 141 -41 244 -136 338 -71 72 -155 118 -262 146 -103 26 -405 35
-538 15z m256 -279 c69 -37 102 -98 107 -202 4 -73 1 -90 -21 -138 -14 -31
-39 -65 -59 -81 l-35 -26 -260 0 c-219 0 -263 2 -273 15 -36 43 59 236 162
331 123 114 277 154 379 101z"/>
        <path d="M13890 8700 c-125 -13 -279 -59 -402 -121 -186 -94 -355 -255 -459
-440 -72 -127 -90 -189 -96 -324 -15 -355 146 -540 489 -561 160 -9 268 7 463
69 94 30 173 52 178 50 4 -2 7 -17 7 -33 0 -51 21 -55 262 -55 l217 0 31 30
c43 41 43 40 109 252 130 415 126 397 126 588 l0 170 -39 73 c-68 128 -171
212 -325 264 -127 43 -352 58 -561 38z m250 -283 c147 -75 161 -322 30 -550
-39 -69 -124 -165 -190 -215 -63 -48 -216 -102 -289 -102 -77 0 -141 54 -171
144 -20 61 -8 225 23 314 74 212 241 391 403 431 56 14 142 4 194 -22z"/>
        <path d="M11404 8669 c-23 -5 -51 -20 -62 -32 -36 -38 -63 -166 -63 -292 0
-139 22 -218 87 -305 26 -33 45 -62 43 -63 -200 -138 -304 -249 -384 -407 -63
-125 -84 -242 -48 -271 13 -11 62 -14 235 -12 279 2 278 2 325 123 19 47 46
112 60 145 81 179 198 285 316 285 138 0 175 -103 132 -373 -23 -144 -18 -167
40 -180 22 -4 129 -7 237 -5 l197 3 34 33 c41 40 63 103 79 227 19 153 -12
273 -98 373 -20 23 -34 49 -31 57 3 7 39 36 79 63 88 59 186 161 252 261 60
92 88 155 111 248 16 66 16 75 2 96 -21 33 -55 37 -289 37 l-196 0 -36 -41
c-19 -23 -47 -74 -62 -113 -52 -139 -104 -227 -179 -302 -67 -68 -142 -114
-187 -114 -53 0 -130 73 -149 142 -12 46 -8 103 17 254 19 115 16 145 -16 161
-30 15 -381 16 -446 2z"/>
        <path d="M15265 8673 c-45 -10 -77 -27 -94 -52 -36 -51 -232 -692 -246 -806
-10 -80 10 -216 40 -276 32 -62 111 -144 176 -182 61 -36 170 -73 255 -88 99
-16 350 -14 471 5 299 46 542 192 688 412 48 72 173 451 260 787 54 205 52
207 -241 207 l-212 0 -46 -51 c-25 -28 -46 -56 -46 -62 0 -16 -186 -615 -220
-708 -39 -107 -66 -152 -137 -223 -95 -97 -195 -131 -295 -102 -88 25 -128 80
-128 175 0 80 9 119 100 446 108 385 121 441 114 470 -13 51 -33 55 -234 54
-102 -1 -194 -3 -205 -6z"/>
    </g>
</svg>
